# xmcd
#
# Track frame offsets:
#	182
#	14137
#	32402
#	53657
#	73835
#	93317
#	110002
#	125167
#	146222
#	162595
#	177235
#	192640
#	208997
#	228820
#
# Disc length: 3315
#
# Revision: 1
# Processed by: cddbd v1.5.1PL0 Copyright (c) Steve Scherf et al.
# Submitted via: FreeRIP 2.80 
# Normalized: r0:DSETVAR1,TDELIM( - )
#
DISCID=d80cf10e
DTITLE=Various Artist - Mulheres 95
DYEAR=1995
DGENRE=Brasil
TTITLE0=Modinha Para Gabriela - Gal Costa
TTITLE1=Asa Morena - Zizi Possi
TTITLE2=Simples Carinho - Ângela Rô Rô
TTITLE3=Pra Começar - Marina
TTITLE4=Foi Assim - Wanderléa
TTITLE5=Demais (Yes It Is) - Verônica Sabina
TTITLE6=Enredo Do Meu Samba - Sandra de Sá
TTITLE7=De Volta Pro Aconchego - Elba Ramalho
TTITLE8=Filho da Bahia - Fafá de Belém
TTITLE9=Saco de Feijão - Beth Carvalho
TTITLE10=Lanterna Dos Afogados - Cássia Eller
TTITLE11=Felicidade - Joanna
TTITLE12=Ficar Com Você (I wanna be where you are) - Patrícia Marx
TTITLE13=Coisas do Brasil - Leila Pinheiro
EXTD=
EXTT0=
EXTT1=
EXTT2=
EXTT3=
EXTT4=
EXTT5=
EXTT6=
EXTT7=
EXTT8=
EXTT9=
EXTT10=
EXTT11=
EXTT12=
EXTT13=
PLAYORDER=
